# xmcd
#
# Track frame offsets: 
#        150
#        1736
#        7478
#        9846
#        17876
#        23600
#        29865
#        39913
#        45465
#        48646
#        54110
#        60179
#        66712
#        88858
#        101859
#        115077
#        132901
#        135438
#        147402
#        162193
#        179063
#        183672
#        197805
#        206568
#        222225
#        235815
#        244754
#        258031
#        295318
#        310458
#        315064
#        322604
#        330526
#        331901
#
# Disc length: 4536 seconds
#
# Revision: 0
# Processed by: cddbd v1.5.2PL0 Copyright (c) Steve Scherf et al.
# Submitted via: ExactAudioCopy v0.99pb5
#
DISCID=de11b622
DTITLE=Ray Charles - Pure Genius: The Complete Atlantic Recordings (19
DTITLE=52-1959) Disc 7
DYEAR=2005
DGENRE=Rock and Roll
TTITLE0=Baby Let Me Hold Your Hand
TTITLE1=Unknown Title
TTITLE2=Piano Improvisation and Dialog #1
TTITLE3=Losing Hand and Dialog #1
TTITLE4=Little Rock Getaway and Dialog
TTITLE5=Kentucky Waltz
TTITLE6=Heartbreaker (Instrumental Version)
TTITLE7=Heartbreaker and Dialog
TTITLE8=Piano Improvisation and Dialog #2
TTITLE9=Heartbreaker (False Starts 1 and 2)
TTITLE10=Losing Hand and Dialog #2
TTITLE11=Losing Hand and Dialog #3 (with Reverb)
TTITLE12=Losing Hand and Dialog #4 (with Reverb)
TTITLE13=Heartbreaker
TTITLE14=It Should've Been Me and Dialog
TTITLE15=Nobody Cares
TTITLE16=Piano Improvisation and Dialog #3
TTITLE17=Mess Around
TTITLE18=Funny (But I Still Love You)
TTITLE19=Sinner's Prayer
TTITLE20=Piano Improvisation and Dialog #4
TTITLE21=Low Society and Dialog #1
TTITLE22=Boogie Woogie
TTITLE23=Low Society and Dialog #2
TTITLE24=Worried Life Blues
TTITLE25=Come Back Baby'' (Walter Davis Version) and Dialog
TTITLE26=Low Society
TTITLE27=(Night Time Is) The Right Time (Takes 1-7) and Dialog
TTITLE28=Tell Me How Do You Feel (Take 1)
TTITLE29=Dialog
TTITLE30=It Had To Be You and Dialog
TTITLE31=My Buddy and Dialog
TTITLE32=Dialog
TTITLE33=When Your Love Has Gone and Dialog
EXTD=
EXTT0=
EXTT1=
EXTT2=
EXTT3=
EXTT4=
EXTT5=
EXTT6=
EXTT7=
EXTT8=
EXTT9=
EXTT10=
EXTT11=
EXTT12=
EXTT13=
EXTT14=
EXTT15=
EXTT16=
EXTT17=
EXTT18=
EXTT19=
EXTT20=
EXTT21=
EXTT22=
EXTT23=
EXTT24=
EXTT25=
EXTT26=
EXTT27=
EXTT28=
EXTT29=
EXTT30=
EXTT31=
EXTT32=
EXTT33=
PLAYORDER=
